<svg viewBox="0 0 168 168" xmlns="http://www.w3.org/2000/svg" class="h-8 w-8 fill-white">
  <path d="M84 0C37.7 0 0 37.7 0 84s37.7 84 84 84 84-37.7 84-84S130.3 0 84 0zm38.4 121.2c-1.5 2.4-4.7 3.1-7.1 1.7-19.5-11.9-44.1-14.6-73.2-8.2-2.7.6-5.4-1.1-6.1-3.8-.6-2.7 1.1-5.4 3.8-6.1 32.5-7 60-4 82.3 9.3 2.4 1.5 3.1 4.7 1.7 7.1zm10.2-20.5c-1.9 3-5.8 3.9-8.8 2-22.4-13.6-56.6-17.5-83.1-9.8-3.3.9-6.7-1-7.6-4.3s1-6.7 4.3-7.6c31.9-8.6 70-4.2 96.1 11.3 3 1.8 4 5.7 2.1 8.4zm.9-21.9c-26.1-15.6-69.2-17-94-9.5-3.8 1.1-7.7-1.1-8.8-5s1.1-7.7 5-8.8c29.7-8.7 78-7 108.3 11.1 3.5 2.1 4.6 6.7 2.5 10.2-2.1 3.6-6.6 4.7-10.2 2.4z"/>
</svg>